<?xml version="1.0" encoding="utf-8"?>
<!-- Generator: Adobe Illustrator 16.0.0, SVG Export Plug-In . SVG Version: 6.00 Build 0)  -->
<!DOCTYPE svg PUBLIC "-//W3C//DTD SVG 1.1//EN" "http://www.w3.org/Graphics/SVG/1.1/DTD/svg11.dtd">
<svg version="1.1" id="Layer_1" xmlns="http://www.w3.org/2000/svg" xmlns:xlink="http://www.w3.org/1999/xlink" x="0px" y="0px"
	 width="72px" height="72px" viewBox="0 0 72 72" enable-background="new 0 0 72 72" xml:space="preserve">
<path d="M12.942,63.773C6.829,57.662,3.486,49.514,3.53,40.83c0.044-8.668,3.459-16.832,9.616-22.988
	c6.154-6.156,14.318-9.57,22.985-9.614c0.057,0,0.113,0,0.17,0c8.62,0,16.701,3.338,22.773,9.411
	c12.606,12.606,12.515,33.211-0.204,45.93l-5.656-5.656c9.6-9.6,9.691-25.13,0.204-34.618c-4.561-4.561-10.636-7.067-17.118-7.067
	c-0.043,0-0.085,0-0.128,0c-6.546,0.033-12.715,2.615-17.369,7.271c-4.657,4.656-7.24,10.826-7.273,17.373
	c-0.033,6.529,2.478,12.654,7.068,17.246L12.942,63.773z"/>
<rect x="32.008" y="12.231" width="8" height="31.521"/>
</svg>
