<?xml version="1.0" encoding="utf-8"?>
<!-- Generator: Adobe Illustrator 16.0.0, SVG Export Plug-In . SVG Version: 6.00 Build 0)  -->
<!DOCTYPE svg PUBLIC "-//W3C//DTD SVG 1.1//EN" "http://www.w3.org/Graphics/SVG/1.1/DTD/svg11.dtd">
<svg version="1.1" id="Layer_1" xmlns="http://www.w3.org/2000/svg" xmlns:xlink="http://www.w3.org/1999/xlink" x="0px" y="0px"
	 width="72px" height="72px" viewBox="0 0 72 72" enable-background="new 0 0 72 72" xml:space="preserve">
<path d="M36.167,63.615c-12.59,0-22.833-10.33-22.834-23.025V9h8v31.59c0,8.285,6.655,15.025,14.834,15.025
	c3.954,0,7.674-1.559,10.475-4.387C49.452,48.389,51,44.611,51,40.591c0-4.022-1.548-7.8-4.359-10.64
	c-2.8-2.829-6.52-4.387-10.475-4.386v-8h0.002c6.106,0,11.844,2.4,16.158,6.758C56.63,28.67,59,34.447,59,40.59
	c0.001,6.143-2.369,11.92-6.674,16.268C48.013,61.215,42.273,63.615,36.167,63.615z"/>
</svg>
