<?xml version="1.0" encoding="utf-8"?>
<!-- Generator: Adobe Illustrator 16.0.0, SVG Export Plug-In . SVG Version: 6.00 Build 0)  -->
<!DOCTYPE svg PUBLIC "-//W3C//DTD SVG 1.1//EN" "http://www.w3.org/Graphics/SVG/1.1/DTD/svg11.dtd">
<svg version="1.1" id="Layer_1" xmlns="http://www.w3.org/2000/svg" xmlns:xlink="http://www.w3.org/1999/xlink" x="0px" y="0px"
	 width="72px" height="72px" viewBox="0 0 72 72" enable-background="new 0 0 72 72" xml:space="preserve">
<path d="M44.091,64.879c-7.716,0-14.971-3.004-20.426-8.461c-11.263-11.262-11.263-29.587,0-40.85
	c11.262-11.264,29.59-11.263,40.853,0l-5.656,5.657c-8.146-8.145-21.396-8.145-29.54,0c-8.143,8.144-8.143,21.395,0,29.537
	c3.945,3.945,9.19,6.117,14.77,6.117s10.824-2.172,14.77-6.117l5.656,5.656C59.063,61.875,51.807,64.879,44.091,64.879z"/>
<rect x="7.483" y="21.995" width="13.818" height="8"/>
<rect x="7.483" y="39.438" width="12.861" height="8"/>
</svg>
