<?xml version="1.0" encoding="utf-8"?>
<!-- Generator: Adobe Illustrator 16.0.0, SVG Export Plug-In . SVG Version: 6.00 Build 0)  -->
<!DOCTYPE svg PUBLIC "-//W3C//DTD SVG 1.1//EN" "http://www.w3.org/Graphics/SVG/1.1/DTD/svg11.dtd">
<svg version="1.1" id="Layer_1" xmlns="http://www.w3.org/2000/svg" xmlns:xlink="http://www.w3.org/1999/xlink" x="0px" y="0px"
	 width="72px" height="72px" viewBox="0 0 72 72" enable-background="new 0 0 72 72" xml:space="preserve">
<path d="M12.942,63.773c-6.113-6.112-9.456-14.261-9.412-22.944c0.044-8.667,3.459-16.831,9.616-22.987
	c6.155-6.156,14.318-9.57,22.985-9.614c0.057,0,0.113,0,0.17,0c8.62,0,16.701,3.338,22.774,9.411
	c12.605,12.606,12.514,33.21-0.205,45.931l-5.656-5.656c9.6-9.602,9.691-25.131,0.203-34.619c-4.59-4.59-10.737-7.109-17.245-7.067
	c-6.546,0.033-12.714,2.615-17.37,7.271c-4.657,4.656-7.239,10.826-7.272,17.372c-0.033,6.531,2.477,12.656,7.068,17.246
	L12.942,63.773z"/>
</svg>
