<?xml version="1.0" encoding="utf-8"?>
<!-- Generator: Adobe Illustrator 16.0.0, SVG Export Plug-In . SVG Version: 6.00 Build 0)  -->
<!DOCTYPE svg PUBLIC "-//W3C//DTD SVG 1.1//EN" "http://www.w3.org/Graphics/SVG/1.1/DTD/svg11.dtd">
<svg version="1.1" id="Layer_1" xmlns="http://www.w3.org/2000/svg" xmlns:xlink="http://www.w3.org/1999/xlink" x="0px" y="0px"
	 width="72px" height="72px" viewBox="0 0 72 72" enable-background="new 0 0 72 72" xml:space="preserve">
<path d="M36.421,63c-5.32,0-10.639-2.023-14.69-6.074c-8.099-8.1-8.099-21.28,0-29.38c8.1-8.101,21.28-8.1,29.38,0l-5.656,5.657
	c-4.98-4.98-13.086-4.981-18.066,0c-4.98,4.981-4.98,13.085,0,18.067c4.98,4.98,13.084,4.979,18.066-0.001l5.656,5.657
	C47.063,60.975,41.74,63,36.421,63z"/>
<path d="M23.482,34.234C15.497,34.234,9,27.737,9,19.751S15.497,5.269,23.482,5.269s14.482,6.497,14.482,14.482h-8
	c0-3.574-2.908-6.482-6.483-6.482c-3.574,0-6.482,2.908-6.482,6.482c0,3.575,2.908,6.483,6.482,6.483V34.234z"/>
</svg>
